<!--?xml version="1.0" encoding="utf-8"?-->
<!-- Generator: Adobe Illustrator 24.1.1, SVG Export Plug-In . SVG Version: 6.00 Build 0)  -->
<svg version="1.1" id="_x31_0" xmlns="http://www.w3.org/2000/svg" xmlns:xlink="http://www.w3.org/1999/xlink" x="0px" y="0px" viewBox="0 0 512 512" style="width: 256px; height: 256px; opacity: 1;" xml:space="preserve">
<style type="text/css">
	.st0{fill:#374149;}
</style>
<g>
	<path class="st0" d="M389.316,125.317c0-57.137-34.282-102.742-89.453-119.008C285.988,2.121,271.242,0,256.039,0
		C178.766,0,122.68,52.703,122.68,125.317c0,44.125,19.902,88.129,53.25,117.73c1.625,1.426,2.449,3.972,0.934,5.874
		c-2.618,3.524-4.266,7.192-4.969,10.902c-0.622,2.238-0.926,4.649-0.926,7.359c0,10.532,5.098,20.043,13.41,24.891
		c1.762,0.953,2.813,2.66,2.813,4.566v108.465c0,21.074-15.531,39.113-35.356,41.062c-11.297,1.11-22.129-2.469-30.484-10.051
		c-8.215-7.453-12.93-18.066-12.93-29.117c0-7.641-5.985-13.629-13.622-13.629c-7.472,0-13.55,6.113-13.55,13.629
		c0,19.363,8.406,37.734,23.074,50.402c14.606,12.621,34.054,18.238,53.32,15.406c32.387-4.504,56.805-33.778,56.805-68.094V330.75
		h0.004c0-2.504,2.039-4.543,4.625-4.543c2.442,0,4.465,2,4.508,4.386v114.844c0,21.676-17.633,39.309-39.305,39.309
		c-7.515,0-13.629,6.148-13.629,13.703c0,7.472,6.114,13.55,13.629,13.55c36.746,0,66.637-29.859,66.637-66.562V330.718
		c0.019-2.488,2.054-4.511,4.531-4.511h1.187c2.504,0,4.543,2.039,4.543,4.543l0.058,114.687c0,36.703,29.898,66.562,66.641,66.562
		c7.508,0,13.625-6.078,13.625-13.55c0-7.555-6.117-13.703-13.625-13.703c-21.722,0-39.386-17.633-39.386-39.309V330.699
		c0.027-2.477,2.058-4.492,4.523-4.492c2.496,0,4.527,2.031,4.535,4.523v73.985c0,34.324,24.418,63.602,56.77,68.09
		c19.293,2.84,38.746-2.782,53.355-15.406C422.344,444.73,430.75,426.359,430.75,407c0-7.516-6.078-13.629-13.55-13.629
		c-7.321,0-13.172,5.484-13.618,12.774c-0.981,17.281-8.726,30.469-21.238,36.175c-13.457,6.082-27.836,5.274-39.453-2.226
		c-11.324-7.312-18.086-19.683-18.086-33.094V296.641c0-1.906,1.051-3.614,2.914-4.618c8.207-4.734,13.313-14.254,13.313-24.84
		c0-6.507-1.965-12.738-5.829-18.214c-0.605-0.762-0.867-1.488-0.793-2.45c0.047-1.246,0.711-2.574,1.754-3.488
		C368.949,213.859,389.316,168.754,389.316,125.317z M304.004,273.25v-12.211c0-3.465,1.817-6.774,4.969-8.191
		c1.176-0.473,2.438-0.707,3.778-0.707c6.461,0,11.738,6.691,11.738,15.042c0,8.27-5.278,14.966-11.738,14.966
		c-1.34,0-2.602-0.234-3.778-0.707C305.82,280.102,304.004,276.715,304.004,273.25z M199.242,252.141
		c1.34,0,2.602,0.234,3.786,0.707c3.144,1.418,5.039,4.726,5.039,8.191v12.211c0,3.465-1.895,6.851-5.039,8.191
		c-1.184,0.473-2.446,0.707-3.786,0.707c-6.453,0-11.738-6.696-11.738-14.966C187.504,258.832,192.789,252.141,199.242,252.141z
		 M215.472,87.434c-6.621,10.082-16.546,15.988-25.206,15.988c-3.231,0-6.223-0.785-8.902-2.519
		c-9.766-6.379-10.321-22.766-1.258-36.629c6.614-10.082,16.462-15.992,25.122-15.992c3.23,0,6.308,0.789,8.91,2.523
		C223.895,57.183,224.528,73.57,215.472,87.434z" style="fill: rgb(255, 255, 255);"></path>
	<path class="st0" d="M198.773,266.711c2.122,0,3.863-2.047,3.863-4.727c0-2.598-1.742-4.648-3.863-4.648
		c-2.206,0-3.938,2.05-3.938,4.648C194.836,264.664,196.567,266.711,198.773,266.711z" style="fill: rgb(255, 255, 255);"></path>
	<path class="st0" d="M317.156,261.984c0-2.598-1.73-4.648-3.852-4.648c-2.206,0-3.941,2.05-3.941,4.648
		c0,2.68,1.734,4.727,3.941,4.727C315.426,266.711,317.156,264.664,317.156,261.984z" style="fill: rgb(255, 255, 255);"></path>
</g>
</svg>
